<?xml version="1.0" encoding="UTF-8" standalone="no"?>
<!-- Created with Inkscape (http://www.inkscape.org/) -->

<svg
   width="90mm"
   height="55mm"
   viewBox="0 0 340.15747 207.87401"
   version="1.1"
   id="svg5"
   fill="#558564"
   xmlns="http://www.w3.org/2000/svg"
   xmlns:svg="http://www.w3.org/2000/svg">
  <defs
     id="defs2">
    <rect
       x="40.775288"
       y="44.772865"
       width="77.553002"
       height="58.364628"
       id="rect1221" />
  </defs>
  <g
     id="layer1">
    <path
       d="M 74.38643,88.622575 V 150.88906 H 38.071955 V 25.714165 H 74.38643 V 76.05923 h 29.62014 V 25.714165 h 36.31447 V 150.88906 H 104.00657 V 88.622575 Z"
       style="font-weight:bold;font-size:40px;line-height:1.25;font-family:'Britannic Bold';-inkscape-font-specification:'Britannic Bold,  Bold';text-align:center;text-anchor:middle;white-space:pre;stroke-width:4.6952"
       id="path10735" />
    <path
       d="M 151.05032,25.714165 H 187.3648 V 182.15986 h -36.31448 z"
       style="font-weight:bold;font-size:40px;line-height:1.25;font-family:'Britannic Bold';-inkscape-font-specification:'Britannic Bold,  Bold';text-align:center;text-anchor:middle;white-space:pre;stroke-width:4.6952"
       id="path10737" />
    <path
       d="M 198.09407,150.88906 V 25.714165 h 55.66386 q 43.0088,0 43.0088,30.720579 0,21.825364 -25.95199,27.969481 31.27076,6.235818 31.27076,33.196565 0,33.28827 -42.09176,33.28827 z m 36.31448,-10.36247 h 10.36246 q 20.35811,0 20.35811,-23.29261 0,-26.685639 -21.00004,-26.685639 h -9.72053 z m 0,-60.340711 h 11.18779 q 15.49784,0 15.49784,-22.925807 0,-21.183445 -16.41487,-21.183445 h -10.27076 z"
       style="font-weight:bold;font-size:40px;line-height:1.25;font-family:'Britannic Bold';-inkscape-font-specification:'Britannic Bold,  Bold';text-align:center;text-anchor:middle;white-space:pre;stroke-width:4.6952"
       id="path10739" />
  </g>
</svg>
